<svg xmlns="http://www.w3.org/2000/svg" width="613" height="10" viewBox="0 0 613 10" preserveAspectRatio="xMinYMid" aria-hidden="true" focusable="false"><path d="M0,11H27V-1H0Z" fill="#009ee2"/><path d="M53.44,11h14V-1h-14Z" fill="#00904a"/><path d="M91.26,11h27V-1h-27Z" fill="#5291cd"/><path d="M150.37,11h40V-1h-40Z" fill="#b63527"/><path d="M240.33,11h87V-1h-87Z" fill="#b0b7b6"/><path d="M356.13,11h118V-1h-118Z" fill="#a9aa7c"/><path d="M523.26,11h39V-1h-39Z" fill="#f6c0d9"/><path d="M579,11H684.75V-1H579Z" fill="#c2b6da"/><path d="M25.92,11H54.11V-1H25.92Z" fill="#faba07"/><path d="M66.78,11H92.1V-1H66.78Z" fill="#b7be00"/><path d="M117.43,11h33.94V-1H117.43Z" fill="#00904a"/><path d="M189.37,11h51.3V-1h-51.3Z" fill="#ee7d00"/><path d="M327,11h29.59V-1H327Z" fill="#b86900"/><path d="M473.7,11h49.72V-1H473.7Z" fill="#0076b3"/><path d="M562.1,11H580V-1H562.1Z" fill="#27b3ad"/></svg>
